<svg xmlns="http://www.w3.org/2000/svg" xmlns:xlink="http://www.w3.org/1999/xlink" version="1.1" x="0px" y="0px" viewBox="0 0 60 75" style="enable-background:new 0 0 60 60;" xml:space="preserve"><g><path d="M38,60H22c-0.553,0-1-0.448-1-1V25c0-2.757,2.243-5,5-5h2c0.553,0,1,0.448,1,1v3c0,0.552-0.447,1-1,1c-1.104,0-2,0.897-2,2   v11c0,0.552-0.447,1-1,1s-1-0.448-1-1V27c0-1.86,1.275-3.428,3-3.874V22h-1c-1.654,0-3,1.346-3,3v33h14V25c0-1.654-1.346-3-3-3h-2   c-0.553,0-1-0.448-1-1V8c0-0.535,0.218-1.057,0.598-1.432C31.977,6.195,32.518,6,33,6V2h-6v4c0.541,0,1.023,0.199,1.406,0.578   C28.789,6.957,29,7.462,29,8v7c0,0.552-0.447,1-1,1s-1-0.448-1-1V8c-0.563,0.002-1.023-0.195-1.402-0.568   C25.218,7.057,25,6.535,25,6V1c0-0.552,0.447-1,1-1h8c0.553,0,1,0.448,1,1v5c0,0.539-0.211,1.044-0.594,1.422   S33.521,8.002,32.975,8l0.022,12H34c2.757,0,5,2.243,5,5v34C39,59.552,38.553,60,38,60z"/><path d="M37,60c-0.73,0-1.387-0.549-2.469-1.458C33.255,57.469,31.506,56,30,56c-1.418,0-3.184,1.456-4.472,2.52   C24.408,59.441,23.73,60,23,60c-0.553,0-1-0.448-1-1c0-0.516,0.393-0.941,0.895-0.994c0.25-0.113,0.891-0.641,1.36-1.029   C25.778,55.721,27.863,54,30,54c2.234,0,4.307,1.74,5.816,3.01c0.447,0.375,1.052,0.883,1.293,0.997   c0.5,0.054,0.891,0.479,0.891,0.994C38,59.552,37.553,60,37,60z"/></g><text x="0" y="75" fill="#000000" font-size="5px" font-weight="bold" font-family="'Helvetica Neue', Helvetica, Arial-Unicode, Arial, Sans-serif">Created by Norbert Kucsera</text><text x="0" y="80" fill="#000000" font-size="5px" font-weight="bold" font-family="'Helvetica Neue', Helvetica, Arial-Unicode, Arial, Sans-serif">from the Noun Project</text></svg>